<svg xmlns="http://www.w3.org/2000/svg" xmlns:xlink="http://www.w3.org/1999/xlink" version="1.1" width="608" height="488"><g id="Context Diagram"><g id="Uses"><polyline points="160,192 160,216 160.95000000000005,228.76999999999998 163.67000000000007,238.97000000000003 167.98000000000002,246.86 173.68000000000006,252.72000000000003 180.5999999999999,256.82 188.54999999999995,259.43 197.32999999999993,260.82 216.68000000000006,261.03 257.23,258.74 266.6700000000001,259.18 275.45000000000005,260.57 283.4000000000001,263.18 290.31999999999994,267.28 296.02,273.14 300.3299999999999,281.03 303.04999999999995,291.23 304,304 304,328" fill="none" stroke-width="1" stroke="#adb3b3" opacity="1"></polyline></g><g id="Uses"><rect width="43.19200000000001" height="22.2" x="210.41642987054325" y="249.06412418240333" rx="4" ry="4" fill-opacity="0.8" fill="#e5e7e8" stroke-opacity="1" stroke-width="1" stroke="#cfd2d2" opacity="0.8"></rect><g opacity="1" fill="#434647"><text font-family="IBM Plex Sans Medium, Arial, sans-serif" font-size="14" text-anchor="middle" x="232.01242987054326" y="265.41412418240327"><tspan dy="0" x="232.01242987054326">Uses</tspan></text></g></g><g id="Uses"><polyline points="448,192 448,216 447.04999999999995,228.76999999999998 444.3299999999999,238.97000000000003 440.02,246.86 434.31999999999994,252.72000000000003 427.4000000000001,256.82 419.45000000000005,259.43 410.6700000000001,260.82 391.31999999999994,261.03 350.77,258.74 341.3299999999999,259.18 332.54999999999995,260.57 324.5999999999999,263.18 317.68000000000006,267.28 311.98,273.14 307.6700000000001,281.03 304.95000000000005,291.23 304,304 304,328" fill="none" stroke-width="1" stroke="#adb3b3" opacity="1"></polyline></g><g id="Uses"><rect width="43.19200000000001" height="22.2" x="354.39157012945674" y="249.06412418240333" rx="4" ry="4" fill-opacity="0.8" fill="#e5e7e8" stroke-opacity="1" stroke-width="1" stroke="#cfd2d2" opacity="0.8"></rect><g opacity="1" fill="#434647"><text font-family="IBM Plex Sans Medium, Arial, sans-serif" font-size="14" text-anchor="middle" x="375.98757012945674" y="265.41412418240327"><tspan dy="0" x="375.98757012945674">Uses</tspan></text></g></g><a href="https://app.icepanel.io/landscapes/ZX5cPCGLPLpo3p48M4ou/versions/latest/model/objects?object=0oS5cMdlnu&amp;focus=0oS5cMdlnu" id="Inventory Platform" target="_blank"><rect width="256" height="128" rx="8" ry="8" fill-opacity="0.8" fill="#f5f6f6" stroke-opacity="1" stroke-width="1" stroke="#adb3b3" opacity="1" x="176" y="328"></rect><text font-family="IBM Plex Sans Medium, Arial, sans-serif" font-size="24" font-weight="500" text-anchor="middle" fill="#0c0d0d" opacity="1" x="304" y="397"><tspan dy="0" x="304">Inventory Platform</tspan></text><g id="System" opacity="1"><text font-family="Courier New, monospace" font-size="12" text-anchor="middle" fill="#595f61" x="304" y="444.6552734375"><tspan dy="0" x="304">System</tspan></text></g></a><a href="https://app.icepanel.io/landscapes/ZX5cPCGLPLpo3p48M4ou/versions/latest/model/objects?object=KhObpqSjlb&amp;focus=KhObpqSjlb" id="Admin" target="_blank"><rect width="56" height="56" rx="8" ry="8" fill-opacity="0.8" fill="#f5f6f6" stroke-opacity="1" stroke-width="1" stroke="#adb3b3" opacity="1" x="420" y="32"></rect><rect width="256" height="96" rx="8" ry="8" fill-opacity="0.8" fill="#f5f6f6" stroke-opacity="1" stroke-width="1" stroke="#adb3b3" opacity="1" x="320" y="96"></rect><path d="M448 61.714285714285715C451.7875 61.714285714285715 454.8571428571429 58.644642857142856 454.8571428571429 54.85714285714286C454.8571428571429 51.06964285714285 451.7875 48 448 48C444.2125 48 441.1428571428571 51.06964285714285 441.1428571428571 54.85714285714286C441.1428571428571 58.644642857142856 444.2125 61.714285714285715 448 61.714285714285715ZM452.8 63.42857142857143L451.90535714285716 63.42857142857143C450.71607142857147 63.974999999999994 449.3928571428571 64.28571428571428 448 64.28571428571428C446.6071428571429 64.28571428571428 445.2892857142857 63.974999999999994 444.09464285714284 63.42857142857143L443.2 63.42857142857143C439.225 63.42857142857143 436 66.65357142857142 436 70.62857142857143L436 72.85714285714286C436 74.27678571428571 437.1517857142857 75.42857142857143 438.57142857142856 75.42857142857143L457.42857142857144 75.42857142857143C458.8482142857143 75.42857142857143 460 74.27678571428571 460 72.85714285714286L460 70.62857142857143C460 66.65357142857142 456.775 63.42857142857143 452.8 63.42857142857143Z " fill="#0c0d0d" opacity="1"></path><text font-family="IBM Plex Sans Medium, Arial, sans-serif" font-size="24" font-weight="500" text-anchor="middle" fill="#0c0d0d" opacity="1" x="447.99999999999994" y="144"><tspan dy="0" x="447.99999999999994">Admin</tspan></text><g id="Actor" opacity="1"><text font-family="Courier New, monospace" font-size="12" text-anchor="middle" fill="#595f61" x="448" y="180.6552734375"><tspan dy="0" x="448">Actor</tspan></text></g></a><a href="https://app.icepanel.io/landscapes/ZX5cPCGLPLpo3p48M4ou/versions/latest/model/objects?object=wG2TzVG4q7&amp;focus=wG2TzVG4q7" id="User" target="_blank"><rect width="56" height="56" rx="8" ry="8" fill-opacity="0.8" fill="#f5f6f6" stroke-opacity="1" stroke-width="1" stroke="#adb3b3" opacity="1" x="132" y="32"></rect><rect width="256" height="96" rx="8" ry="8" fill-opacity="0.8" fill="#f5f6f6" stroke-opacity="1" stroke-width="1" stroke="#adb3b3" opacity="1" x="32" y="96"></rect><path d="M160 61.714285714285715C163.7875 61.714285714285715 166.85714285714286 58.644642857142856 166.85714285714286 54.85714285714286C166.85714285714286 51.06964285714285 163.7875 48 160 48C156.2125 48 153.14285714285714 51.06964285714285 153.14285714285714 54.85714285714286C153.14285714285714 58.644642857142856 156.2125 61.714285714285715 160 61.714285714285715ZM164.8 63.42857142857143L163.90535714285716 63.42857142857143C162.71607142857144 63.974999999999994 161.39285714285714 64.28571428571428 160 64.28571428571428C158.60714285714286 64.28571428571428 157.2892857142857 63.974999999999994 156.09464285714284 63.42857142857143L155.2 63.42857142857143C151.225 63.42857142857143 148 66.65357142857142 148 70.62857142857143L148 72.85714285714286C148 74.27678571428571 149.15178571428572 75.42857142857143 150.57142857142856 75.42857142857143L169.42857142857142 75.42857142857143C170.84821428571428 75.42857142857143 172 74.27678571428571 172 72.85714285714286L172 70.62857142857143C172 66.65357142857142 168.775 63.42857142857143 164.8 63.42857142857143Z " fill="#0c0d0d" opacity="1"></path><text font-family="IBM Plex Sans Medium, Arial, sans-serif" font-size="24" font-weight="500" text-anchor="middle" fill="#0c0d0d" opacity="1" x="160" y="144"><tspan dy="0" x="160">User</tspan></text><g id="Actor" opacity="1"><text font-family="Courier New, monospace" font-size="12" text-anchor="middle" fill="#595f61" x="160" y="180.6552734375"><tspan dy="0" x="160">Actor</tspan></text></g></a><g id="Uses"><polygon points="239.99999999999994,248 231.99999999999994,264 247.99999999999994,264 239.99999999999994,248" fill="#adb3b3" opacity="1" transform="matrix(-1,1.2246467991473532e-16,-1.2246467991473532e-16,-1,544,576)"></polygon><circle r="4" fill="#adb3b3" opacity="1" cx="160" cy="192"></circle></g><g id="Uses"><polygon points="239.99999999999994,248 231.99999999999994,264 247.99999999999994,264 239.99999999999994,248" fill="#adb3b3" opacity="1" transform="matrix(-1,1.2246467991473532e-16,-1.2246467991473532e-16,-1,544,576)"></polygon><circle r="4" fill="#adb3b3" opacity="1" cx="448" cy="192"></circle></g></g></svg>